<svg xmlns="http://www.w3.org/2000/svg" xmlns:xlink="http://www.w3.org/1999/xlink" width="500" zoomAndPan="magnify" viewBox="0 0 375 374.999991" height="500" preserveAspectRatio="xMidYMid meet" version="1.0"><defs><g/><clipPath id="aee9b3d4c1"><path d="M 37.5 117.324219 L 147 117.324219 L 147 227.574219 L 37.5 227.574219 Z M 37.5 117.324219 " clip-rule="nonzero"/></clipPath></defs><g clip-path="url(#aee9b3d4c1)"><path fill="#3ab1fd" d="M 146.789062 171.984375 C 146.789062 170.976562 146.757812 169.96875 146.703125 168.964844 C 146.648438 167.957031 146.5625 166.953125 146.449219 165.953125 C 146.339844 164.949219 146.199219 163.953125 146.03125 162.957031 C 145.867188 161.964844 145.671875 160.976562 145.449219 159.992188 C 145.226562 159.011719 144.980469 158.035156 144.703125 157.0625 C 144.429688 156.09375 144.125 155.132812 143.796875 154.179688 C 143.46875 153.226562 143.113281 152.285156 142.730469 151.351562 C 142.351562 150.417969 141.945312 149.496094 141.511719 148.585938 C 141.078125 147.675781 140.621094 146.777344 140.140625 145.894531 C 139.660156 145.007812 139.152344 144.136719 138.625 143.277344 C 138.09375 142.421875 137.539062 141.578125 136.964844 140.753906 C 136.386719 139.925781 135.789062 139.117188 135.167969 138.324219 C 134.546875 137.527344 133.902344 136.753906 133.238281 135.996094 C 132.574219 135.238281 131.890625 134.5 131.183594 133.777344 C 130.480469 133.058594 129.753906 132.359375 129.011719 131.679688 C 128.265625 131 127.503906 130.339844 126.722656 129.703125 C 125.941406 129.0625 125.144531 128.449219 124.332031 127.855469 C 123.515625 127.261719 122.6875 126.691406 121.839844 126.140625 C 120.996094 125.59375 120.132812 125.070312 119.257812 124.570312 C 118.382812 124.070312 117.496094 123.59375 116.59375 123.144531 C 115.691406 122.691406 114.78125 122.265625 113.855469 121.867188 C 112.929688 121.464844 111.996094 121.089844 111.050781 120.742188 C 110.101562 120.394531 109.148438 120.070312 108.183594 119.777344 C 107.222656 119.480469 106.25 119.210938 105.273438 118.96875 C 104.292969 118.726562 103.308594 118.511719 102.320312 118.324219 C 101.328125 118.136719 100.335938 117.976562 99.335938 117.84375 C 98.335938 117.710938 97.335938 117.605469 96.328125 117.527344 C 95.324219 117.453125 94.320312 117.402344 93.3125 117.382812 C 92.304688 117.359375 91.296875 117.367188 90.289062 117.398438 C 89.28125 117.433594 88.277344 117.496094 87.273438 117.585938 C 86.269531 117.675781 85.265625 117.792969 84.269531 117.9375 C 83.273438 118.082031 82.28125 118.257812 81.292969 118.457031 C 80.304688 118.65625 79.324219 118.882812 78.347656 119.140625 C 77.371094 119.394531 76.40625 119.675781 75.445312 119.984375 C 74.484375 120.289062 73.535156 120.625 72.59375 120.984375 C 71.652344 121.347656 70.722656 121.730469 69.800781 122.144531 C 68.882812 122.554688 67.976562 122.992188 67.078125 123.457031 C 66.183594 123.917969 65.300781 124.40625 64.433594 124.917969 C 63.5625 125.425781 62.710938 125.960938 61.871094 126.519531 C 61.03125 127.078125 60.210938 127.660156 59.402344 128.265625 C 58.59375 128.867188 57.804688 129.492188 57.035156 130.140625 C 56.261719 130.789062 55.507812 131.457031 54.773438 132.144531 C 54.035156 132.835938 53.320312 133.542969 52.625 134.273438 C 51.929688 135.003906 51.253906 135.75 50.597656 136.515625 C 49.945312 137.28125 49.3125 138.066406 48.699219 138.867188 C 48.089844 139.667969 47.5 140.488281 46.933594 141.320312 C 46.367188 142.15625 45.824219 143.003906 45.304688 143.867188 C 44.785156 144.730469 44.292969 145.609375 43.820312 146.5 C 43.351562 147.390625 42.90625 148.296875 42.484375 149.210938 C 42.0625 150.128906 41.667969 151.054688 41.300781 151.992188 C 40.929688 152.929688 40.585938 153.875 40.269531 154.832031 C 39.953125 155.789062 39.664062 156.753906 39.398438 157.726562 C 39.136719 158.699219 38.898438 159.679688 38.691406 160.667969 C 38.480469 161.652344 38.300781 162.644531 38.144531 163.640625 C 37.992188 164.636719 37.863281 165.632812 37.765625 166.636719 C 37.664062 167.640625 37.59375 168.644531 37.550781 169.652344 C 37.507812 170.660156 37.492188 171.667969 37.503906 172.675781 C 37.515625 173.683594 37.554688 174.6875 37.625 175.695312 C 37.691406 176.699219 37.789062 177.703125 37.910156 178.703125 C 38.035156 179.703125 38.1875 180.699219 38.363281 181.691406 C 38.542969 182.683594 38.75 183.671875 38.980469 184.652344 C 39.214844 185.632812 39.476562 186.605469 39.761719 187.570312 C 40.046875 188.535156 40.363281 189.496094 40.703125 190.441406 C 41.042969 191.390625 41.40625 192.332031 41.800781 193.257812 C 42.300781 194.433594 42.832031 195.585938 43.402344 196.710938 L 42.675781 221.96875 C 42.664062 222.308594 42.726562 222.636719 42.859375 222.949219 C 42.988281 223.261719 43.179688 223.535156 43.429688 223.765625 C 43.675781 224 43.960938 224.167969 44.285156 224.277344 C 44.605469 224.386719 44.9375 224.425781 45.273438 224.390625 L 69.921875 221.914062 C 70.238281 222.054688 70.550781 222.195312 70.871094 222.328125 C 72.847656 223.164062 74.867188 223.882812 76.925781 224.480469 C 78.988281 225.078125 81.078125 225.550781 83.195312 225.902344 C 85.308594 226.253906 87.441406 226.480469 89.585938 226.582031 C 91.726562 226.683594 93.871094 226.65625 96.011719 226.503906 C 98.152344 226.351562 100.273438 226.074219 102.382812 225.671875 C 104.492188 225.269531 106.566406 224.746094 108.613281 224.097656 C 110.660156 223.453125 112.660156 222.6875 114.617188 221.804688 C 116.574219 220.921875 118.472656 219.929688 120.308594 218.820312 C 120.5625 219.457031 120.859375 220.066406 121.203125 220.65625 C 121.546875 221.246094 121.933594 221.808594 122.363281 222.339844 C 122.789062 222.871094 123.253906 223.371094 123.757812 223.832031 C 124.257812 224.296875 124.792969 224.71875 125.359375 225.101562 C 125.921875 225.484375 126.511719 225.824219 127.128906 226.117188 C 127.746094 226.414062 128.378906 226.660156 129.03125 226.863281 C 129.683594 227.0625 130.347656 227.210938 131.023438 227.3125 C 131.699219 227.414062 132.378906 227.464844 133.058594 227.464844 C 133.960938 227.464844 134.851562 227.378906 135.738281 227.203125 C 136.621094 227.027344 137.476562 226.765625 138.3125 226.421875 C 139.144531 226.074219 139.933594 225.652344 140.683594 225.152344 C 141.433594 224.652344 142.125 224.082031 142.761719 223.445312 C 143.398438 222.808594 143.96875 222.117188 144.46875 221.367188 C 144.96875 220.617188 145.390625 219.828125 145.738281 218.996094 C 146.082031 218.164062 146.34375 217.304688 146.519531 216.421875 C 146.695312 215.535156 146.78125 214.644531 146.78125 213.742188 L 146.78125 173.101562 C 146.78125 172.730469 146.789062 172.359375 146.789062 171.984375 Z M 92.144531 199.238281 C 77.117188 199.238281 64.890625 187.011719 64.890625 171.984375 C 64.890625 156.957031 77.117188 144.734375 92.144531 144.734375 C 107.171875 144.734375 119.394531 156.957031 119.394531 171.984375 C 119.394531 187.011719 107.171875 199.238281 92.144531 199.238281 Z M 92.144531 199.238281 " fill-opacity="1" fill-rule="nonzero"/></g><g fill="#3ab1fd" fill-opacity="1"><g transform="translate(154.642359, 208.4638)"><g><path d="M 23.777344 -52.398438 C 12.746094 -52.398438 6.261719 -43.902344 4.546875 -17.515625 C 4.324219 -14.085938 4.25 -10.433594 4.175781 -6.410156 C 4.097656 -2.234375 6.335938 0 10.359375 0 C 14.386719 0 16.621094 -2.234375 16.621094 -6.335938 C 16.621094 -8.199219 16.695312 -9.914062 16.695312 -11.554688 L 29.890625 -11.554688 C 29.964844 -9.691406 29.964844 -7.828125 29.964844 -5.8125 C 29.964844 -2.011719 32.199219 0 36.300781 0 L 37.417969 0 C 41.515625 0 43.753906 -2.386719 43.679688 -6.707031 C 43.15625 -41.589844 36.746094 -52.398438 23.777344 -52.398438 Z M 16.84375 -20.421875 C 17.367188 -37.121094 18.933594 -41.890625 22.734375 -41.890625 C 26.460938 -41.890625 28.695312 -37.121094 29.589844 -20.421875 Z M 16.84375 -20.421875 "/></g></g></g><g fill="#3ab1fd" fill-opacity="1"><g transform="translate(202.491648, 208.4638)"><g><path d="M 15.578125 0.746094 C 19.753906 0.746094 23.777344 -0.671875 26.757812 -3.578125 C 26.832031 -2.980469 26.90625 -2.386719 27.132812 -1.789062 C 27.429688 -0.597656 29.441406 0 33.242188 0 L 33.914062 0 C 37.9375 0 40.027344 -2.3125 39.804688 -6.484375 C 39.578125 -11.554688 39.578125 -18.039062 39.578125 -26.980469 C 39.578125 -36.96875 34.0625 -41.890625 22.957031 -41.890625 C 12.074219 -41.890625 6.335938 -38.984375 4.621094 -33.167969 C 3.429688 -29.070312 6.484375 -26.683594 10.660156 -26.683594 L 11.402344 -26.683594 C 15.054688 -26.683594 15.355469 -28.695312 17.515625 -31.976562 C 18.410156 -33.316406 20.050781 -33.839844 21.988281 -33.839844 C 25.269531 -33.839844 26.757812 -32.199219 26.757812 -26.757812 L 26.757812 -24.222656 C 9.988281 -24.671875 2.3125 -19.828125 2.3125 -10.507812 C 2.3125 -2.683594 8.199219 0.746094 15.578125 0.746094 Z M 19.527344 -7.675781 C 16.027344 -7.675781 14.160156 -9.691406 14.160156 -12.523438 C 14.160156 -17.292969 20.125 -18.113281 26.90625 -18.261719 L 26.90625 -11.554688 C 25.195312 -9.09375 22.882812 -7.675781 19.527344 -7.675781 Z M 19.527344 -7.675781 "/></g></g></g><g fill="#3ab1fd" fill-opacity="1"><g transform="translate(245.869036, 208.4638)"><g><path d="M 40.773438 -19.082031 C 40.773438 -24.449219 40.847656 -29.589844 40.921875 -34.808594 C 40.921875 -38.984375 38.683594 -41.21875 34.585938 -41.21875 L 34.136719 -41.21875 C 30.039062 -41.21875 27.800781 -38.984375 27.875 -34.882812 C 27.953125 -29.589844 28.027344 -24.449219 27.875 -19.082031 C 27.875 -13.492188 25.789062 -10.660156 22.285156 -10.585938 C 19.378906 -10.507812 17.292969 -12.671875 17.292969 -16.917969 C 17.292969 -23.03125 17.367188 -28.847656 17.441406 -34.882812 C 17.441406 -38.984375 15.207031 -41.21875 11.105469 -41.21875 L 10.660156 -41.21875 C 6.558594 -41.21875 4.324219 -38.984375 4.324219 -34.882812 C 4.398438 -28.027344 4.546875 -21.464844 4.398438 -14.535156 C 4.175781 -3.207031 8.871094 0.820312 16.84375 0.820312 C 22.511719 0.820312 27.132812 -2.609375 29.21875 -8.421875 L 29.515625 -8.273438 C 29.515625 4.472656 24.746094 7.902344 13.269531 7.304688 C 9.019531 7.15625 6.558594 8.496094 6.335938 11.777344 C 6.039062 15.207031 7.527344 17.738281 11.253906 18.410156 C 12.820312 18.632812 14.535156 18.785156 16.25 18.785156 C 31.304688 18.785156 41.144531 10.808594 40.847656 -9.691406 C 40.847656 -12.820312 40.773438 -15.875 40.773438 -19.082031 Z M 40.773438 -19.082031 "/></g></g></g><g fill="#3ab1fd" fill-opacity="1"><g transform="translate(291.109707, 208.4638)"><g><path d="M 34.585938 -41.21875 L 34.136719 -41.21875 C 30.039062 -41.21875 27.800781 -38.984375 27.875 -34.882812 C 27.953125 -29.589844 28.027344 -24.449219 27.875 -19.082031 C 27.875 -12.96875 25.492188 -9.914062 22.0625 -9.839844 C 19.082031 -9.765625 17.292969 -12.148438 17.292969 -16.917969 C 17.292969 -23.03125 17.367188 -28.847656 17.441406 -34.882812 C 17.441406 -38.984375 15.207031 -41.21875 11.105469 -41.21875 L 10.660156 -41.21875 C 6.558594 -41.21875 4.324219 -38.984375 4.324219 -34.882812 C 4.398438 -28.027344 4.546875 -21.464844 4.398438 -14.535156 C 4.175781 -3.207031 9.09375 0.820312 16.398438 0.820312 C 22.285156 0.820312 26.535156 -2.011719 28.847656 -6.855469 C 28.996094 -5.664062 29.21875 -4.546875 29.515625 -3.355469 C 30.1875 -1.042969 32.347656 0 35.777344 0 C 39.058594 0 40.921875 -2.234375 40.847656 -6.335938 C 40.847656 -10.585938 40.773438 -14.757812 40.773438 -19.082031 C 40.773438 -24.449219 40.847656 -29.589844 40.921875 -34.882812 C 40.921875 -38.984375 38.683594 -41.21875 34.585938 -41.21875 Z M 34.585938 -41.21875 "/></g></g></g><g fill="#3ab1fd" fill-opacity="1"><g transform="translate(336.373211, 208.4638)"><g/></g></g></svg>