<svg xmlns="http://www.w3.org/2000/svg" xmlns:xlink="http://www.w3.org/1999/xlink" width="500" zoomAndPan="magnify" viewBox="0 0 375 374.999991" height="500" preserveAspectRatio="xMidYMid meet" version="1.0"><defs><clipPath id="ffb2601ba1"><path d="M 25.246094 24 L 349.996094 24 L 349.996094 350.949219 L 25.246094 350.949219 Z M 25.246094 24 " clip-rule="nonzero"/></clipPath></defs><g clip-path="url(#ffb2601ba1)"><path fill="#3ab1fd" d="M 349.746094 186.253906 C 349.742188 183.261719 349.660156 180.269531 349.492188 177.28125 C 349.324219 174.292969 349.078125 171.3125 348.746094 168.339844 C 348.414062 165.363281 348 162.402344 347.503906 159.449219 C 347.007812 156.5 346.429688 153.5625 345.773438 150.644531 C 345.113281 147.726562 344.375 144.824219 343.554688 141.949219 C 342.738281 139.070312 341.839844 136.214844 340.863281 133.386719 C 339.886719 130.558594 338.832031 127.757812 337.703125 124.988281 C 336.570312 122.21875 335.363281 119.480469 334.078125 116.777344 C 332.796875 114.074219 331.441406 111.40625 330.007812 108.777344 C 328.578125 106.148438 327.078125 103.5625 325.503906 101.015625 C 323.929688 98.472656 322.289062 95.972656 320.574219 93.515625 C 318.863281 91.0625 317.085938 88.65625 315.238281 86.300781 C 313.394531 83.945312 311.484375 81.640625 309.511719 79.390625 C 307.539062 77.140625 305.507812 74.945312 303.414062 72.808594 C 301.320312 70.667969 299.167969 68.589844 296.960938 66.570312 C 294.75 64.550781 292.488281 62.597656 290.171875 60.703125 C 287.851562 58.808594 285.484375 56.980469 283.066406 55.21875 C 280.648438 53.453125 278.183594 51.757812 275.671875 50.132812 C 273.160156 48.507812 270.605469 46.953125 268.003906 45.464844 C 265.40625 43.980469 262.769531 42.570312 260.09375 41.230469 C 257.417969 39.890625 254.707031 38.628906 251.960938 37.4375 C 249.214844 36.25 246.4375 35.136719 243.628906 34.101562 C 240.820312 33.066406 237.988281 32.109375 235.125 31.230469 C 232.265625 30.351562 229.382812 29.554688 226.476562 28.835938 C 223.570312 28.117188 220.648438 27.476562 217.710938 26.917969 C 214.769531 26.363281 211.816406 25.886719 208.847656 25.492188 C 205.882812 25.097656 202.90625 24.789062 199.921875 24.558594 C 196.9375 24.328125 193.953125 24.183594 190.960938 24.117188 C 187.96875 24.054688 184.976562 24.074219 181.984375 24.175781 C 178.996094 24.277344 176.007812 24.460938 173.027344 24.726562 C 170.046875 24.996094 167.074219 25.34375 164.113281 25.773438 C 161.152344 26.207031 158.207031 26.71875 155.273438 27.3125 C 152.339844 27.90625 149.425781 28.582031 146.53125 29.339844 C 143.632812 30.09375 140.761719 30.929688 137.914062 31.84375 C 135.0625 32.757812 132.242188 33.75 129.445312 34.820312 C 126.652344 35.890625 123.890625 37.039062 121.15625 38.261719 C 118.425781 39.484375 115.730469 40.785156 113.070312 42.15625 C 110.414062 43.53125 107.792969 44.976562 105.214844 46.492188 C 102.636719 48.011719 100.101562 49.597656 97.609375 51.257812 C 95.117188 52.914062 92.671875 54.640625 90.277344 56.433594 C 87.882812 58.226562 85.535156 60.082031 83.242188 62.007812 C 80.949219 63.929688 78.710938 65.914062 76.527344 67.960938 C 74.347656 70.007812 72.222656 72.113281 70.152344 74.277344 C 68.085938 76.441406 66.082031 78.660156 64.136719 80.9375 C 62.195312 83.210938 60.3125 85.539062 58.5 87.917969 C 56.683594 90.296875 54.9375 92.726562 53.253906 95.203125 C 51.574219 97.675781 49.964844 100.199219 48.421875 102.761719 C 46.878906 105.328125 45.410156 107.933594 44.015625 110.582031 C 42.617188 113.226562 41.292969 115.910156 40.042969 118.628906 C 38.796875 121.351562 37.625 124.101562 36.527344 126.886719 C 35.429688 129.671875 34.410156 132.484375 33.472656 135.324219 C 32.53125 138.164062 31.667969 141.03125 30.886719 143.917969 C 30.105469 146.808594 29.402344 149.714844 28.78125 152.644531 C 28.160156 155.570312 27.621094 158.511719 27.160156 161.46875 C 26.703125 164.425781 26.324219 167.394531 26.03125 170.371094 C 25.738281 173.351562 25.527344 176.335938 25.394531 179.324219 C 25.265625 182.316406 25.21875 185.304688 25.257812 188.296875 C 25.292969 191.289062 25.410156 194.28125 25.613281 197.265625 C 25.816406 200.25 26.097656 203.230469 26.464844 206.199219 C 26.832031 209.167969 27.28125 212.128906 27.8125 215.074219 C 28.339844 218.019531 28.953125 220.945312 29.644531 223.859375 C 30.335938 226.769531 31.109375 229.660156 31.960938 232.527344 C 32.8125 235.398438 33.742188 238.238281 34.753906 241.058594 C 35.761719 243.875 36.847656 246.660156 38.011719 249.417969 C 39.492188 252.90625 41.082031 256.324219 42.777344 259.671875 L 40.609375 334.664062 C 40.59375 335.164062 40.632812 335.660156 40.726562 336.148438 C 40.816406 336.640625 40.960938 337.113281 41.152344 337.574219 C 41.347656 338.035156 41.585938 338.46875 41.871094 338.878906 C 42.15625 339.289062 42.480469 339.664062 42.847656 340.003906 C 43.210938 340.34375 43.609375 340.640625 44.039062 340.898438 C 44.464844 341.152344 44.917969 341.359375 45.390625 341.519531 C 45.863281 341.679688 46.347656 341.789062 46.84375 341.847656 C 47.339844 341.902344 47.835938 341.90625 48.332031 341.859375 L 121.507812 334.503906 C 122.445312 334.921875 123.382812 335.335938 124.328125 335.734375 C 127.261719 336.972656 130.226562 338.125 133.226562 339.191406 C 136.226562 340.257812 139.253906 341.230469 142.3125 342.117188 C 145.367188 343.003906 148.449219 343.800781 151.554688 344.507812 C 154.65625 345.210938 157.777344 345.824219 160.917969 346.347656 C 164.058594 346.867188 167.210938 347.296875 170.378906 347.632812 C 173.542969 347.96875 176.714844 348.210938 179.894531 348.359375 C 183.074219 348.507812 186.257812 348.5625 189.4375 348.527344 C 192.621094 348.488281 195.800781 348.355469 198.976562 348.128906 C 202.152344 347.90625 205.316406 347.585938 208.472656 347.175781 C 211.628906 346.761719 214.769531 346.257812 217.898438 345.664062 C 221.023438 345.066406 224.132812 344.378906 227.21875 343.597656 C 230.304688 342.820312 233.363281 341.949219 236.398438 340.992188 C 239.433594 340.03125 242.4375 338.984375 245.410156 337.847656 C 248.386719 336.710938 251.324219 335.488281 254.222656 334.179688 C 257.125 332.867188 259.984375 331.476562 262.804688 329.996094 C 265.625 328.519531 268.398438 326.960938 271.125 325.320312 C 271.875 327.203125 272.761719 329.019531 273.78125 330.769531 C 274.804688 332.523438 275.949219 334.1875 277.21875 335.765625 C 278.492188 337.347656 279.871094 338.824219 281.359375 340.199219 C 282.851562 341.570312 284.4375 342.828125 286.113281 343.964844 C 287.792969 345.101562 289.542969 346.109375 291.371094 346.984375 C 293.199219 347.859375 295.082031 348.597656 297.023438 349.191406 C 298.960938 349.785156 300.929688 350.234375 302.9375 350.535156 C 304.941406 350.835938 306.957031 350.984375 308.984375 350.984375 C 310.316406 350.984375 311.648438 350.917969 312.976562 350.789062 C 314.304688 350.65625 315.625 350.460938 316.933594 350.203125 C 318.242188 349.941406 319.535156 349.617188 320.808594 349.230469 C 322.085938 348.84375 323.34375 348.394531 324.574219 347.882812 C 325.808594 347.371094 327.011719 346.800781 328.191406 346.171875 C 329.367188 345.542969 330.507812 344.859375 331.617188 344.117188 C 332.730469 343.375 333.800781 342.582031 334.832031 341.734375 C 335.863281 340.890625 336.851562 339.996094 337.792969 339.050781 C 338.738281 338.105469 339.632812 337.121094 340.476562 336.089844 C 341.324219 335.058594 342.117188 333.984375 342.859375 332.875 C 343.601562 331.765625 344.285156 330.625 344.914062 329.449219 C 345.542969 328.269531 346.113281 327.066406 346.625 325.832031 C 347.136719 324.601562 347.585938 323.34375 347.972656 322.066406 C 348.359375 320.792969 348.683594 319.5 348.945312 318.191406 C 349.203125 316.882812 349.398438 315.5625 349.53125 314.234375 C 349.660156 312.90625 349.726562 311.574219 349.726562 310.242188 L 349.726562 189.570312 C 349.726562 188.46875 349.746094 187.359375 349.746094 186.253906 Z M 187.496094 267.167969 C 142.878906 267.167969 106.578125 230.871094 106.578125 186.253906 C 106.578125 141.636719 142.878906 105.335938 187.496094 105.335938 C 232.113281 105.335938 268.410156 141.636719 268.410156 186.253906 C 268.410156 230.871094 232.113281 267.167969 187.496094 267.167969 Z M 187.496094 267.167969 " fill-opacity="1" fill-rule="nonzero"/></g></svg>